<svg width="800" height="500" viewBox="0 0 800 500" fill="none" xmlns="http://www.w3.org/2000/svg">
  <!-- Background -->
  <rect width="800" height="500" fill="#111827"/>
  
  <!-- Navbar -->
  <rect width="800" height="56" fill="#1f2937"/>
  <rect x="24" y="18" width="80" height="20" rx="4" fill="#10b981"/>
  <rect x="130" y="22" width="50" height="12" rx="2" fill="#6b7280"/>
  <rect x="196" y="22" width="60" height="12" rx="2" fill="#6b7280"/>
  <rect x="272" y="22" width="45" height="12" rx="2" fill="#6b7280"/>
  <circle cx="740" cy="28" r="14" fill="#374151"/>
  <rect x="660" y="18" width="60" height="20" rx="4" fill="#374151"/>

  <!-- Featured Article -->
  <rect x="24" y="72" width="460" height="240" rx="12" fill="#1f2937"/>
  <rect x="24" y="72" width="460" height="160" rx="12" fill="#374151"/>
  <rect x="40" y="244" width="70" height="20" rx="10" fill="#10b981"/>
  <text x="52" y="258" font-family="system-ui" font-size="10" fill="white">Technology</text>
  <rect x="40" y="272" width="320" height="14" rx="3" fill="white"/>
  <rect x="40" y="294" width="400" height="8" rx="2" fill="#6b7280"/>
  <circle cx="52" cy="320" r="12" fill="#4b5563"/>
  <rect x="72" y="314" width="80" height="8" rx="2" fill="#9ca3af"/>
  <rect x="72" y="326" width="60" height="6" rx="2" fill="#6b7280"/>

  <!-- Sidebar Articles -->
  <rect x="500" y="72" width="276" height="115" rx="8" fill="#1f2937"/>
  <rect x="512" y="84" width="100" height="70" rx="6" fill="#374151"/>
  <rect x="624" y="84" width="50" height="16" rx="8" fill="#065f46"/>
  <rect x="624" y="108" width="140" height="10" rx="2" fill="white"/>
  <rect x="624" y="124" width="120" height="6" rx="2" fill="#6b7280"/>
  <rect x="624" y="140" width="80" height="6" rx="2" fill="#4b5563"/>

  <rect x="500" y="197" width="276" height="115" rx="8" fill="#1f2937"/>
  <rect x="512" y="209" width="100" height="70" rx="6" fill="#374151"/>
  <rect x="624" y="209" width="36" height="16" rx="8" fill="#7c3aed"/>
  <rect x="624" y="233" width="140" height="10" rx="2" fill="white"/>
  <rect x="624" y="249" width="120" height="6" rx="2" fill="#6b7280"/>
  <rect x="624" y="265" width="80" height="6" rx="2" fill="#4b5563"/>

  <!-- Category Pills -->
  <rect x="24" y="328" width="752" height="36" fill="#111827"/>
  <rect x="24" y="332" width="40" height="24" rx="12" fill="#10b981"/>
  <text x="34" y="348" font-family="system-ui" font-size="10" fill="white">All</text>
  <rect x="76" y="332" width="80" height="24" rx="12" fill="#1f2937"/>
  <text x="88" y="348" font-family="system-ui" font-size="10" fill="#9ca3af">Technology</text>
  <rect x="168" y="332" width="56" height="24" rx="12" fill="#1f2937"/>
  <text x="180" y="348" font-family="system-ui" font-size="10" fill="#9ca3af">Design</text>
  <rect x="236" y="332" width="48" height="24" rx="12" fill="#1f2937"/>
  <text x="248" y="348" font-family="system-ui" font-size="10" fill="#9ca3af">AI</text>
  <rect x="296" y="332" width="64" height="24" rx="12" fill="#1f2937"/>
  <text x="308" y="348" font-family="system-ui" font-size="10" fill="#9ca3af">Startups</text>

  <!-- Article Grid -->
  <rect x="24" y="380" width="240" height="100" rx="8" fill="#1f2937"/>
  <rect x="24" y="380" width="240" height="56" rx="8" fill="#374151"/>
  <rect x="36" y="444" width="160" height="10" rx="2" fill="white"/>
  <rect x="36" y="460" width="120" height="6" rx="2" fill="#6b7280"/>

  <rect x="280" y="380" width="240" height="100" rx="8" fill="#1f2937"/>
  <rect x="280" y="380" width="240" height="56" rx="8" fill="#374151"/>
  <rect x="292" y="444" width="160" height="10" rx="2" fill="white"/>
  <rect x="292" y="460" width="120" height="6" rx="2" fill="#6b7280"/>

  <rect x="536" y="380" width="240" height="100" rx="8" fill="#1f2937"/>
  <rect x="536" y="380" width="240" height="56" rx="8" fill="#374151"/>
  <rect x="548" y="444" width="160" height="10" rx="2" fill="white"/>
  <rect x="548" y="460" width="120" height="6" rx="2" fill="#6b7280"/>
</svg>
