<svg width="800" height="500" viewBox="0 0 800 500" fill="none" xmlns="http://www.w3.org/2000/svg">
  <!-- Page Background -->
  <rect width="800" height="500" fill="#0f172a"/>

  <!-- Sidebar -->
  <rect width="200" height="500" fill="#1e293b"/>
  <rect x="16" y="20" width="32" height="32" rx="8" fill="#6366f1"/>
  <text x="24" y="41" font-family="system-ui" font-size="16" fill="white">◈</text>
  <rect x="56" y="28" width="80" height="12" rx="3" fill="#f1f5f9"/>

  <!-- Nav Items -->
  <rect x="8" y="72" width="184" height="32" rx="6" fill="#312e81"/>
  <text x="24" y="92" font-family="system-ui" font-size="12" fill="white">◈  Overview</text>
  <rect x="8" y="112" width="184" height="28" rx="6" fill="transparent"/>
  <text x="24" y="130" font-family="system-ui" font-size="12" fill="#94a3b8">📊  Analytics</text>
  <rect x="8" y="148" width="184" height="28" rx="6" fill="transparent"/>
  <text x="24" y="166" font-family="system-ui" font-size="12" fill="#94a3b8">📦  Orders</text>
  <rect x="8" y="184" width="184" height="28" rx="6" fill="transparent"/>
  <text x="24" y="202" font-family="system-ui" font-size="12" fill="#94a3b8">👥  Customers</text>
  <rect x="8" y="220" width="184" height="28" rx="6" fill="transparent"/>
  <text x="24" y="238" font-family="system-ui" font-size="12" fill="#94a3b8">🏷️  Products</text>
  <rect x="8" y="256" width="184" height="28" rx="6" fill="transparent"/>
  <text x="24" y="274" font-family="system-ui" font-size="12" fill="#94a3b8">⚙️  Settings</text>

  <!-- User at bottom -->
  <rect x="8" y="452" width="184" height="40" rx="6" fill="#334155"/>
  <circle cx="32" cy="472" r="14" fill="#6366f1"/>
  <text x="24" y="477" font-family="system-ui" font-size="10" fill="white">SC</text>
  <rect x="54" y="462" width="80" height="8" rx="2" fill="#f1f5f9"/>
  <rect x="54" y="476" width="52" height="6" rx="2" fill="#94a3b8"/>

  <!-- Top Bar -->
  <rect x="200" y="0" width="600" height="52" fill="#1e293b"/>
  <rect x="220" y="14" width="100" height="12" rx="3" fill="#f1f5f9"/>
  <rect x="220" y="30" width="160" height="8" rx="2" fill="#64748b"/>
  <rect x="600" y="12" width="120" height="28" rx="6" fill="#334155"/>
  <text x="614" y="30" font-family="system-ui" font-size="11" fill="#94a3b8">⌕  Search...</text>
  <rect x="736" y="12" width="36" height="28" rx="6" fill="#334155"/>
  <text x="748" y="30" font-family="system-ui" font-size="13" fill="#94a3b8">🔔</text>
  <circle cx="768" cy="16" r="4" fill="#6366f1"/>

  <!-- Stat Cards -->
  <rect x="212" y="64" width="134" height="88" rx="8" fill="#1e293b" stroke="#334155" stroke-width="1"/>
  <rect x="224" y="76" width="60" height="8" rx="2" fill="#94a3b8"/>
  <rect x="296" y="72" width="36" height="36" rx="6" fill="#312e81"/>
  <text x="306" y="95" font-family="system-ui" font-size="16" fill="#818cf8">💰</text>
  <rect x="224" y="100" width="90" height="18" rx="3" fill="#f1f5f9"/>
  <rect x="224" y="126" width="100" height="8" rx="2" fill="#10b981"/>

  <rect x="358" y="64" width="134" height="88" rx="8" fill="#1e293b" stroke="#334155" stroke-width="1"/>
  <rect x="370" y="76" width="60" height="8" rx="2" fill="#94a3b8"/>
  <rect x="442" y="72" width="36" height="36" rx="6" fill="#312e81"/>
  <text x="452" y="95" font-family="system-ui" font-size="16" fill="#818cf8">👥</text>
  <rect x="370" y="100" width="80" height="18" rx="3" fill="#f1f5f9"/>
  <rect x="370" y="126" width="100" height="8" rx="2" fill="#10b981"/>

  <rect x="504" y="64" width="134" height="88" rx="8" fill="#1e293b" stroke="#334155" stroke-width="1"/>
  <rect x="516" y="76" width="60" height="8" rx="2" fill="#94a3b8"/>
  <rect x="588" y="72" width="36" height="36" rx="6" fill="#312e81"/>
  <text x="598" y="95" font-family="system-ui" font-size="16" fill="#818cf8">📦</text>
  <rect x="516" y="100" width="70" height="18" rx="3" fill="#f1f5f9"/>
  <rect x="516" y="126" width="100" height="8" rx="2" fill="#10b981"/>

  <rect x="650" y="64" width="134" height="88" rx="8" fill="#1e293b" stroke="#334155" stroke-width="1"/>
  <rect x="662" y="76" width="60" height="8" rx="2" fill="#94a3b8"/>
  <rect x="734" y="72" width="36" height="36" rx="6" fill="#312e81"/>
  <text x="744" y="95" font-family="system-ui" font-size="16" fill="#818cf8">📉</text>
  <rect x="662" y="100" width="50" height="18" rx="3" fill="#f1f5f9"/>
  <rect x="662" y="126" width="100" height="8" rx="2" fill="#ef4444"/>

  <!-- Chart Card -->
  <rect x="212" y="164" width="240" height="180" rx="8" fill="#1e293b" stroke="#334155" stroke-width="1"/>
  <rect x="224" y="176" width="100" height="10" rx="3" fill="#f1f5f9"/>
  <rect x="352" y="174" width="80" height="16" rx="4" fill="#312e81"/>
  <!-- Bar chart bars -->
  <rect x="234" y="282" width="20" height="60" rx="2" fill="#6366f1" opacity="0.5"/>
  <rect x="262" y="264" width="20" height="78" rx="2" fill="#6366f1" opacity="0.6"/>
  <rect x="290" y="252" width="20" height="90" rx="2" fill="#6366f1" opacity="0.7"/>
  <rect x="318" y="270" width="20" height="72" rx="2" fill="#6366f1" opacity="0.8"/>
  <rect x="346" y="240" width="20" height="102" rx="2" fill="#6366f1" opacity="0.9"/>
  <rect x="374" y="228" width="20" height="114" rx="2" fill="#6366f1"/>
  <rect x="224" y="342" width="180" height="1" fill="#334155"/>
  <rect x="234" y="348" width="20" height="6" rx="1" fill="#64748b"/>
  <rect x="262" y="348" width="20" height="6" rx="1" fill="#64748b"/>
  <rect x="290" y="348" width="20" height="6" rx="1" fill="#64748b"/>
  <rect x="318" y="348" width="20" height="6" rx="1" fill="#64748b"/>
  <rect x="346" y="348" width="20" height="6" rx="1" fill="#64748b"/>
  <rect x="374" y="348" width="20" height="6" rx="1" fill="#64748b"/>

  <!-- Orders Table -->
  <rect x="464" y="164" width="320" height="180" rx="8" fill="#1e293b" stroke="#334155" stroke-width="1"/>
  <rect x="476" y="176" width="100" height="10" rx="3" fill="#f1f5f9"/>
  <rect x="720" y="174" width="52" height="16" rx="4" fill="#312e81"/>
  <!-- Table header -->
  <rect x="464" y="198" width="320" height="24" fill="#0f172a"/>
  <rect x="476" y="206" width="36" height="6" rx="1" fill="#64748b"/>
  <rect x="544" y="206" width="52" height="6" rx="1" fill="#64748b"/>
  <rect x="636" y="206" width="44" height="6" rx="1" fill="#64748b"/>
  <rect x="720" y="206" width="44" height="6" rx="1" fill="#64748b"/>
  <!-- Rows -->
  <rect x="464" y="222" width="320" height="1" fill="#334155"/>
  <rect x="476" y="232" width="36" height="6" rx="1" fill="#818cf8"/>
  <rect x="544" y="232" width="52" height="6" rx="1" fill="#f1f5f9"/>
  <rect x="636" y="232" width="32" height="6" rx="1" fill="#94a3b8"/>
  <rect x="720" y="228" width="44" height="14" rx="4" fill="#d1fae5"/>
  <text x="728" y="239" font-family="system-ui" font-size="8" fill="#065f46">completed</text>

  <rect x="464" y="246" width="320" height="1" fill="#334155"/>
  <rect x="476" y="256" width="36" height="6" rx="1" fill="#818cf8"/>
  <rect x="544" y="256" width="52" height="6" rx="1" fill="#f1f5f9"/>
  <rect x="636" y="256" width="32" height="6" rx="1" fill="#94a3b8"/>
  <rect x="720" y="252" width="40" height="14" rx="4" fill="#fef3c7"/>
  <text x="728" y="263" font-family="system-ui" font-size="8" fill="#92400e">pending</text>

  <rect x="464" y="270" width="320" height="1" fill="#334155"/>
  <rect x="476" y="280" width="36" height="6" rx="1" fill="#818cf8"/>
  <rect x="544" y="280" width="60" height="6" rx="1" fill="#f1f5f9"/>
  <rect x="636" y="280" width="32" height="6" rx="1" fill="#94a3b8"/>
  <rect x="720" y="276" width="44" height="14" rx="4" fill="#d1fae5"/>
  <text x="728" y="287" font-family="system-ui" font-size="8" fill="#065f46">completed</text>

  <rect x="464" y="294" width="320" height="1" fill="#334155"/>
  <rect x="476" y="304" width="36" height="6" rx="1" fill="#818cf8"/>
  <rect x="544" y="304" width="44" height="6" rx="1" fill="#f1f5f9"/>
  <rect x="636" y="304" width="32" height="6" rx="1" fill="#94a3b8"/>
  <rect x="720" y="300" width="32" height="14" rx="4" fill="#fee2e2"/>
  <text x="728" y="311" font-family="system-ui" font-size="8" fill="#991b1b">failed</text>
</svg>
