<svg width="800" height="500" viewBox="0 0 800 500" fill="none" xmlns="http://www.w3.org/2000/svg">
  <!-- Background -->
  <rect width="800" height="500" fill="#0c0a09"/>
  
  <!-- Sidebar -->
  <rect width="200" height="500" fill="#1c1917"/>
  <rect x="20" y="20" width="80" height="28" rx="6" fill="#ef4444"/>
  <rect x="20" y="72" width="160" height="32" rx="6" fill="#292524"/>
  <rect x="36" y="82" width="12" height="12" rx="2" fill="#ef4444"/>
  <rect x="56" y="82" width="80" height="12" rx="2" fill="white"/>
  <rect x="20" y="112" width="160" height="32" rx="6" fill="transparent"/>
  <rect x="36" y="122" width="12" height="12" rx="2" fill="#78716c"/>
  <rect x="56" y="122" width="70" height="12" rx="2" fill="#78716c"/>
  <rect x="20" y="152" width="160" height="32" rx="6" fill="transparent"/>
  <rect x="36" y="162" width="12" height="12" rx="2" fill="#78716c"/>
  <rect x="56" y="162" width="65" height="12" rx="2" fill="#78716c"/>
  <rect x="20" y="192" width="160" height="32" rx="6" fill="transparent"/>
  <rect x="36" y="202" width="12" height="12" rx="2" fill="#78716c"/>
  <rect x="56" y="202" width="60" height="12" rx="2" fill="#78716c"/>
  
  <!-- User profile -->
  <circle cx="48" cy="460" r="20" fill="#292524"/>
  <rect x="76" y="450" width="80" height="10" rx="2" fill="white"/>
  <rect x="76" y="464" width="60" height="8" rx="2" fill="#78716c"/>

  <!-- Header -->
  <rect x="220" y="20" width="300" height="20" rx="3" fill="white"/>
  <rect x="220" y="48" width="150" height="12" rx="2" fill="#78716c"/>
  <rect x="700" y="20" width="80" height="32" rx="16" fill="#ef4444"/>
  <text x="716" y="40" font-family="system-ui" font-size="11" fill="white">🔥 12</text>

  <!-- Stats Row -->
  <rect x="220" y="80" width="135" height="80" rx="10" fill="#1c1917"/>
  <rect x="232" y="92" width="28" height="28" rx="6" fill="#ef4444" opacity="0.2"/>
  <text x="238" y="112" font-family="system-ui" font-size="14" fill="#ef4444">🔥</text>
  <rect x="232" y="128" width="80" height="14" rx="2" fill="white"/>
  <rect x="232" y="146" width="60" height="8" rx="2" fill="#78716c"/>

  <rect x="365" y="80" width="135" height="80" rx="10" fill="#1c1917"/>
  <rect x="377" y="92" width="28" height="28" rx="6" fill="#3b82f6" opacity="0.2"/>
  <text x="383" y="112" font-family="system-ui" font-size="14" fill="#3b82f6">💪</text>
  <rect x="377" y="128" width="60" height="14" rx="2" fill="white"/>
  <rect x="377" y="146" width="80" height="8" rx="2" fill="#78716c"/>

  <rect x="510" y="80" width="135" height="80" rx="10" fill="#1c1917"/>
  <rect x="522" y="92" width="28" height="28" rx="6" fill="#22c55e" opacity="0.2"/>
  <text x="528" y="112" font-family="system-ui" font-size="14" fill="#22c55e">⏱</text>
  <rect x="522" y="128" width="70" height="14" rx="2" fill="white"/>
  <rect x="522" y="146" width="50" height="8" rx="2" fill="#78716c"/>

  <rect x="655" y="80" width="125" height="80" rx="10" fill="#1c1917"/>
  <rect x="667" y="92" width="28" height="28" rx="6" fill="#f59e0b" opacity="0.2"/>
  <text x="673" y="112" font-family="system-ui" font-size="14" fill="#f59e0b">⚡</text>
  <rect x="667" y="128" width="50" height="14" rx="2" fill="white"/>
  <rect x="667" y="146" width="70" height="8" rx="2" fill="#78716c"/>

  <!-- Today's Workout -->
  <rect x="220" y="176" width="280" height="140" rx="10" fill="url(#workoutGrad)"/>
  <rect x="236" y="192" width="120" height="16" rx="3" fill="white"/>
  <rect x="236" y="216" width="80" height="10" rx="2" fill="rgba(255,255,255,0.7)"/>
  <rect x="236" y="256" width="200" height="8" rx="2" fill="rgba(255,255,255,0.3)"/>
  <rect x="236" y="272" width="160" height="8" rx="2" fill="rgba(255,255,255,0.3)"/>
  <rect x="236" y="288" width="100" height="8" rx="2" fill="rgba(255,255,255,0.3)"/>
  <rect x="400" y="280" width="80" height="28" rx="6" fill="white"/>
  <text x="420" y="298" font-family="system-ui" font-size="10" fill="#ef4444">Start</text>

  <!-- Progress Chart -->
  <rect x="510" y="176" width="270" height="140" rx="10" fill="#1c1917"/>
  <rect x="526" y="192" width="100" height="12" rx="2" fill="white"/>
  <rect x="530" y="260" width="24" height="40" rx="4" fill="#ef4444" opacity="0.6"/>
  <rect x="562" y="240" width="24" height="60" rx="4" fill="#ef4444" opacity="0.8"/>
  <rect x="594" y="250" width="24" height="50" rx="4" fill="#ef4444" opacity="0.6"/>
  <rect x="626" y="220" width="24" height="80" rx="4" fill="#ef4444"/>
  <rect x="658" y="235" width="24" height="65" rx="4" fill="#ef4444" opacity="0.8"/>
  <rect x="690" y="255" width="24" height="45" rx="4" fill="#ef4444" opacity="0.6"/>
  <rect x="722" y="270" width="24" height="30" rx="4" fill="#ef4444" opacity="0.4"/>

  <!-- Exercise Library -->
  <rect x="220" y="332" width="120" height="12" rx="2" fill="white"/>
  <rect x="220" y="356" width="50" height="24" rx="12" fill="#ef4444"/>
  <rect x="280" y="356" width="65" height="24" rx="12" fill="#292524"/>
  <rect x="355" y="356" width="55" height="24" rx="12" fill="#292524"/>
  <rect x="420" y="356" width="70" height="24" rx="12" fill="#292524"/>

  <!-- Exercise Cards -->
  <rect x="220" y="392" width="175" height="90" rx="8" fill="#1c1917"/>
  <rect x="220" y="392" width="70" height="90" rx="8" fill="#292524"/>
  <rect x="300" y="404" width="80" height="10" rx="2" fill="white"/>
  <rect x="300" y="420" width="60" height="8" rx="2" fill="#78716c"/>
  <rect x="300" y="456" width="50" height="18" rx="4" fill="#22c55e" opacity="0.2"/>
  <text x="310" y="469" font-family="system-ui" font-size="9" fill="#22c55e">Easy</text>

  <rect x="405" y="392" width="175" height="90" rx="8" fill="#1c1917"/>
  <rect x="405" y="392" width="70" height="90" rx="8" fill="#292524"/>
  <rect x="485" y="404" width="80" height="10" rx="2" fill="white"/>
  <rect x="485" y="420" width="60" height="8" rx="2" fill="#78716c"/>
  <rect x="485" y="456" width="60" height="18" rx="4" fill="#f59e0b" opacity="0.2"/>
  <text x="493" y="469" font-family="system-ui" font-size="9" fill="#f59e0b">Medium</text>

  <rect x="590" y="392" width="175" height="90" rx="8" fill="#1c1917"/>
  <rect x="590" y="392" width="70" height="90" rx="8" fill="#292524"/>
  <rect x="670" y="404" width="80" height="10" rx="2" fill="white"/>
  <rect x="670" y="420" width="60" height="8" rx="2" fill="#78716c"/>
  <rect x="670" y="456" width="45" height="18" rx="4" fill="#ef4444" opacity="0.2"/>
  <text x="678" y="469" font-family="system-ui" font-size="9" fill="#ef4444">Hard</text>

  <defs>
    <linearGradient id="workoutGrad" x1="220" y1="176" x2="500" y2="316" gradientUnits="userSpaceOnUse">
      <stop offset="0%" stop-color="#ef4444"/>
      <stop offset="100%" stop-color="#dc2626"/>
    </linearGradient>
  </defs>
</svg>
