<svg width="800" height="500" viewBox="0 0 800 500" fill="none" xmlns="http://www.w3.org/2000/svg">
  <!-- Background -->
  <rect width="800" height="500" fill="#18181b"/>
  
  <!-- Navbar -->
  <rect width="800" height="60" fill="#27272a"/>
  <rect x="24" y="18" width="100" height="24" rx="4" fill="#c084fc"/>
  <rect x="150" y="24" width="45" height="12" rx="2" fill="#a1a1aa"/>
  <rect x="211" y="24" width="45" height="12" rx="2" fill="#a1a1aa"/>
  <rect x="272" y="24" width="30" height="12" rx="2" fill="#a1a1aa"/>
  <rect x="318" y="24" width="45" height="12" rx="2" fill="#a1a1aa"/>
  <rect x="660" y="16" width="116" height="28" rx="6" fill="#c084fc"/>
  <text x="690" y="34" font-family="Georgia, serif" font-size="11" fill="white">Book Now</text>

  <!-- Hero with search -->
  <rect y="60" width="800" height="180" fill="#3f3f46"/>
  <rect y="60" width="800" height="180" fill="#18181b" opacity="0.7"/>
  <rect x="200" y="100" width="400" height="28" rx="4" fill="#fbbf24"/>
  <text x="300" y="120" font-family="Georgia, serif" font-size="16" fill="#18181b">The Grand Palace Hotel</text>
  <rect x="260" y="140" width="280" height="10" rx="2" fill="#a1a1aa"/>
  
  <!-- Search bar -->
  <rect x="150" y="170" width="500" height="50" rx="8" fill="#27272a"/>
  <rect x="166" y="182" width="100" height="26" rx="4" fill="#3f3f46"/>
  <rect x="174" y="190" width="60" height="10" rx="2" fill="#71717a"/>
  <rect x="282" y="182" width="100" height="26" rx="4" fill="#3f3f46"/>
  <rect x="290" y="190" width="60" height="10" rx="2" fill="#71717a"/>
  <rect x="398" y="182" width="80" height="26" rx="4" fill="#3f3f46"/>
  <rect x="406" y="190" width="50" height="10" rx="2" fill="#71717a"/>
  <rect x="550" y="182" width="80" height="26" rx="6" fill="#c084fc"/>
  <text x="570" y="200" font-family="system-ui" font-size="11" fill="white">Search</text>

  <!-- Room Filter Tabs -->
  <rect y="240" width="800" height="40" fill="#27272a"/>
  <rect x="240" y="250" width="50" height="24" rx="12" fill="#c084fc"/>
  <text x="255" y="266" font-family="system-ui" font-size="10" fill="white">All</text>
  <rect x="302" y="250" width="60" height="24" rx="12" fill="#3f3f46"/>
  <text x="314" y="266" font-family="system-ui" font-size="10" fill="#a1a1aa">Suites</text>
  <rect x="374" y="250" width="60" height="24" rx="12" fill="#3f3f46"/>
  <text x="386" y="266" font-family="system-ui" font-size="10" fill="#a1a1aa">Deluxe</text>
  <rect x="446" y="250" width="70" height="24" rx="12" fill="#3f3f46"/>
  <text x="458" y="266" font-family="system-ui" font-size="10" fill="#a1a1aa">Standard</text>

  <!-- Room Cards -->
  <rect x="24" y="296" width="240" height="180" rx="10" fill="#27272a"/>
  <rect x="24" y="296" width="240" height="100" rx="10" fill="#3f3f46"/>
  <rect x="36" y="404" width="140" height="12" rx="2" fill="white"/>
  <rect x="36" y="422" width="80" height="10" rx="2" fill="#fbbf24"/>
  <rect x="36" y="440" width="100" height="8" rx="2" fill="#71717a"/>
  <rect x="180" y="440" width="70" height="24" rx="6" fill="#c084fc"/>

  <rect x="280" y="296" width="240" height="180" rx="10" fill="#27272a"/>
  <rect x="280" y="296" width="240" height="100" rx="10" fill="#52525b"/>
  <rect x="292" y="404" width="140" height="12" rx="2" fill="white"/>
  <rect x="292" y="422" width="80" height="10" rx="2" fill="#fbbf24"/>
  <rect x="292" y="440" width="100" height="8" rx="2" fill="#71717a"/>
  <rect x="436" y="440" width="70" height="24" rx="6" fill="#c084fc"/>

  <rect x="536" y="296" width="240" height="180" rx="10" fill="#27272a"/>
  <rect x="536" y="296" width="240" height="100" rx="10" fill="#3f3f46"/>
  <rect x="548" y="404" width="140" height="12" rx="2" fill="white"/>
  <rect x="548" y="422" width="80" height="10" rx="2" fill="#fbbf24"/>
  <rect x="548" y="440" width="100" height="8" rx="2" fill="#71717a"/>
  <rect x="692" y="440" width="70" height="24" rx="6" fill="#c084fc"/>
</svg>
