<svg width="800" height="500" viewBox="0 0 800 500" fill="none" xmlns="http://www.w3.org/2000/svg">
  <!-- Background -->
  <rect width="800" height="500" fill="#030712"/>
  <!-- Purple glow left -->
  <ellipse cx="100" cy="200" rx="280" ry="280" fill="rgba(124,58,237,0.12)"/>
  <!-- Cyan glow right -->
  <ellipse cx="700" cy="350" rx="240" ry="240" fill="rgba(6,182,212,0.07)"/>

  <!-- Navbar -->
  <rect width="800" height="48" fill="rgba(17,24,39,0.9)"/>
  <rect x="20" y="14" width="24" height="24" rx="6" fill="url(#logoGrad)"/>
  <text x="26" y="31" font-family="system-ui" font-size="12" fill="white">◈</text>
  <rect x="52" y="20" width="64" height="10" rx="3" fill="#f9fafb"/>
  <rect x="280" y="20" width="44" height="8" rx="2" fill="#9ca3af"/>
  <rect x="336" y="20" width="40" height="8" rx="2" fill="#9ca3af"/>
  <rect x="388" y="20" width="28" height="8" rx="2" fill="#9ca3af"/>
  <rect x="428" y="20" width="28" height="8" rx="2" fill="#9ca3af"/>
  <rect x="668" y="12" width="52" height="24" rx="6" fill="transparent"/>
  <rect x="728" y="12" width="52" height="24" rx="6" fill="#7c3aed"/>
  <text x="736" y="28" font-family="system-ui" font-size="9" fill="white">Get started</text>

  <!-- Hero Section -->
  <!-- Badge pill -->
  <rect x="296" y="68" width="208" height="20" rx="10" fill="rgba(124,58,237,0.2)" stroke="rgba(124,58,237,0.5)" stroke-width="1"/>
  <circle cx="314" cy="78" r="4" fill="#7c3aed"/>
  <text x="322" y="82" font-family="system-ui" font-size="9" fill="#a78bfa">Now in public beta</text>

  <!-- Headline -->
  <rect x="180" y="100" width="440" height="22" rx="4" fill="#f9fafb"/>
  <rect x="220" y="130" width="360" height="22" rx="4" fill="#f9fafb"/>
  <rect x="260" y="160" width="280" height="22" rx="4" fill="url(#textGrad)" opacity="0.8"/>

  <!-- Subtitle -->
  <rect x="200" y="196" width="400" height="8" rx="2" fill="#9ca3af" opacity="0.7"/>
  <rect x="220" y="210" width="360" height="8" rx="2" fill="#9ca3af" opacity="0.5"/>

  <!-- CTAs -->
  <rect x="232" y="232" width="160" height="36" rx="8" fill="#7c3aed"/>
  <text x="268" y="255" font-family="system-ui" font-size="11" fill="white">Start building free →</text>
  <rect x="404" y="232" width="140" height="36" rx="8" fill="transparent" stroke="#374151" stroke-width="1.5"/>
  <text x="440" y="255" font-family="system-ui" font-size="11" fill="#9ca3af">▷  Watch demo</text>

  <!-- Social proof -->
  <text x="332" y="290" font-family="system-ui" font-size="10" fill="#6b7280">★★★★★  Trusted by 12,000+ companies</text>

  <!-- Stats Bar -->
  <rect y="308" width="800" height="60" fill="transparent" stroke="#1f2937" stroke-width="1"/>
  <line x1="0" y1="308" x2="800" y2="308" stroke="#1f2937" stroke-width="1"/>
  <line x1="0" y1="368" x2="800" y2="368" stroke="#1f2937" stroke-width="1"/>
  <!-- 4 stats -->
  <rect x="60" y="322" width="60" height="14" rx="3" fill="#f9fafb"/>
  <rect x="70" y="342" width="40" height="8" rx="2" fill="#9ca3af"/>
  <rect x="240" y="322" width="70" height="14" rx="3" fill="#f9fafb"/>
  <rect x="250" y="342" width="50" height="8" rx="2" fill="#9ca3af"/>
  <rect x="440" y="322" width="50" height="14" rx="3" fill="#f9fafb"/>
  <rect x="450" y="342" width="30" height="8" rx="2" fill="#9ca3af"/>
  <rect x="630" y="322" width="60" height="14" rx="3" fill="#f9fafb"/>
  <rect x="640" y="342" width="40" height="8" rx="2" fill="#9ca3af"/>

  <!-- Features Grid (3 cols, partial) -->
  <rect y="368" width="800" height="132" fill="#111827"/>
  <text x="340" y="392" font-family="system-ui" font-size="10" fill="#a78bfa" letter-spacing="2">FEATURES</text>
  <!-- Feature cards -->
  <rect x="20" y="404" width="236" height="84" rx="8" fill="#1f2937" stroke="#374151" stroke-width="1"/>
  <rect x="32" y="416" width="36" height="36" rx="8" fill="rgba(124,58,237,0.2)"/>
  <text x="42" y="440" font-family="system-ui" font-size="18" fill="#7c3aed">⚡</text>
  <rect x="76" y="420" width="80" height="8" rx="2" fill="#f9fafb"/>
  <rect x="32" y="458" width="200" height="6" rx="2" fill="#9ca3af" opacity="0.6"/>
  <rect x="32" y="470" width="160" height="6" rx="2" fill="#9ca3af" opacity="0.4"/>

  <rect x="268" y="404" width="236" height="84" rx="8" fill="#1f2937" stroke="#374151" stroke-width="1"/>
  <rect x="280" y="416" width="36" height="36" rx="8" fill="rgba(124,58,237,0.2)"/>
  <text x="290" y="440" font-family="system-ui" font-size="18" fill="#7c3aed">🔒</text>
  <rect x="324" y="420" width="80" height="8" rx="2" fill="#f9fafb"/>
  <rect x="280" y="458" width="200" height="6" rx="2" fill="#9ca3af" opacity="0.6"/>
  <rect x="280" y="470" width="160" height="6" rx="2" fill="#9ca3af" opacity="0.4"/>

  <rect x="516" y="404" width="264" height="84" rx="8" fill="#1f2937" stroke="#7c3aed" stroke-width="1"/>
  <rect x="528" y="416" width="36" height="36" rx="8" fill="rgba(124,58,237,0.2)"/>
  <text x="538" y="440" font-family="system-ui" font-size="18" fill="#7c3aed">📊</text>
  <rect x="572" y="420" width="80" height="8" rx="2" fill="#f9fafb"/>
  <rect x="528" y="458" width="220" height="6" rx="2" fill="#9ca3af" opacity="0.6"/>
  <rect x="528" y="470" width="180" height="6" rx="2" fill="#9ca3af" opacity="0.4"/>

  <defs>
    <linearGradient id="logoGrad" x1="0" y1="0" x2="24" y2="24" gradientUnits="userSpaceOnUse">
      <stop offset="0%" stop-color="#7c3aed"/>
      <stop offset="100%" stop-color="#06b6d4"/>
    </linearGradient>
    <linearGradient id="textGrad" x1="0" y1="0" x2="280" y2="0" gradientUnits="userSpaceOnUse">
      <stop offset="0%" stop-color="#7c3aed"/>
      <stop offset="100%" stop-color="#06b6d4"/>
    </linearGradient>
  </defs>
</svg>
