<svg width="800" height="500" viewBox="0 0 800 500" fill="none" xmlns="http://www.w3.org/2000/svg">
  <!-- Background -->
  <rect width="800" height="500" fill="#0a0a0a"/>

  <!-- Navbar -->
  <rect width="800" height="48" fill="rgba(10,10,10,0.9)"/>
  <rect x="0" y="47" width="800" height="1" fill="#222"/>
  <text x="24" y="30" font-family="system-ui" font-size="16" font-weight="700" fill="#f5f5f5">Alex.</text>
  <rect x="320" y="20" width="36" height="8" rx="2" fill="#888"/>
  <rect x="372" y="20" width="36" height="8" rx="2" fill="#888"/>
  <rect x="424" y="20" width="48" height="8" rx="2" fill="#888"/>
  <text x="708" y="30" font-family="system-ui" font-size="12" font-weight="600" fill="#d4ff00">Say hello →</text>

  <!-- Hero Section -->
  <!-- Availability dot -->
  <circle cx="28" cy="76" r="5" fill="#d4ff00"/>
  <rect x="40" y="70" width="180" height="8" rx="2" fill="#888"/>

  <!-- Big headline lines -->
  <rect x="24" y="96" width="500" height="32" rx="3" fill="#f5f5f5"/>
  <rect x="24" y="136" width="420" height="32" rx="3" fill="#f5f5f5"/>
  <rect x="24" y="176" width="340" height="32" rx="3" fill="#f5f5f5"/>

  <!-- Bio right side -->
  <rect x="560" y="160" width="220" height="8" rx="2" fill="#555"/>
  <rect x="560" y="176" width="200" height="8" rx="2" fill="#555"/>
  <rect x="560" y="192" width="180" height="8" rx="2" fill="#555"/>
  <rect x="560" y="208" width="160" height="8" rx="2" fill="#555"/>

  <!-- Scroll hint -->
  <text x="748" y="208" font-family="system-ui" font-size="20" fill="#555">↓</text>

  <!-- Divider -->
  <rect x="0" y="228" width="800" height="1" fill="#1e1e1e"/>

  <!-- Filter Buttons -->
  <rect x="24" y="244" width="72" height="24" rx="12" fill="#f5f5f5"/>
  <text x="38" y="260" font-family="system-ui" font-size="10" fill="#000">All Work</text>
  <rect x="108" y="244" width="96" height="24" rx="12" fill="#1e1e1e"/>
  <text x="122" y="260" font-family="system-ui" font-size="10" fill="#888">Product Design</text>
  <rect x="216" y="244" width="64" height="24" rx="12" fill="#1e1e1e"/>
  <text x="230" y="260" font-family="system-ui" font-size="10" fill="#888">Branding</text>
  <rect x="292" y="244" width="52" height="24" rx="12" fill="#1e1e1e"/>
  <text x="304" y="260" font-family="system-ui" font-size="10" fill="#888">Motion</text>

  <!-- Project Grid - 2 columns -->
  <!-- Card 1 -->
  <rect x="24" y="284" width="370" height="196" rx="8" fill="#161616"/>
  <rect x="24" y="284" width="370" height="120" rx="8" fill="#1e3a2f"/>
  <!-- hover overlay hint -->
  <rect x="130" y="330" width="160" height="28" rx="6" fill="rgba(0,0,0,0.6)" opacity="0.7"/>
  <text x="152" y="349" font-family="system-ui" font-size="11" fill="white">View Project →</text>
  <rect x="36" y="416" width="160" height="10" rx="2" fill="#f5f5f5"/>
  <rect x="350" y="414" width="30" height="8" rx="2" fill="#555"/>
  <rect x="36" y="432" width="240" height="7" rx="2" fill="#888" opacity="0.7"/>
  <rect x="36" y="452" width="52" height="16" rx="4" fill="#1e1e1e"/>
  <text x="44" y="464" font-family="system-ui" font-size="9" fill="#888">UI Design</text>
  <rect x="96" y="452" width="44" height="16" rx="4" fill="#1e1e1e"/>
  <text x="104" y="464" font-family="system-ui" font-size="9" fill="#888">Figma</text>
  <rect x="148" y="452" width="72" height="16" rx="4" fill="#1e1e1e"/>
  <text x="154" y="464" font-family="system-ui" font-size="9" fill="#888">Prototyping</text>

  <!-- Card 2 -->
  <rect x="406" y="284" width="370" height="196" rx="8" fill="#161616"/>
  <rect x="406" y="284" width="370" height="120" rx="8" fill="#2d1b4e"/>
  <rect x="418" y="416" width="140" height="10" rx="2" fill="#f5f5f5"/>
  <rect x="732" y="414" width="30" height="8" rx="2" fill="#555"/>
  <rect x="418" y="432" width="220" height="7" rx="2" fill="#888" opacity="0.7"/>
  <rect x="418" y="452" width="52" height="16" rx="4" fill="#1e1e1e"/>
  <text x="426" y="464" font-family="system-ui" font-size="9" fill="#888">Branding</text>
  <rect x="478" y="452" width="36" height="16" rx="4" fill="#1e1e1e"/>
  <text x="486" y="464" font-family="system-ui" font-size="9" fill="#888">Logo</text>
  <rect x="522" y="452" width="64" height="16" rx="4" fill="#1e1e1e"/>
  <text x="528" y="464" font-family="system-ui" font-size="9" fill="#d4ff00" opacity="0.8">Typography</text>
</svg>
