<svg width="800" height="500" viewBox="0 0 800 500" fill="none" xmlns="http://www.w3.org/2000/svg">
  <!-- Background -->
  <rect width="800" height="500" fill="#000000"/>
  
  <!-- Left Sidebar -->
  <rect width="220" height="500" fill="#000000"/>
  <rect x="220" width="1" height="500" fill="#2f3336"/>
  <circle cx="40" cy="32" r="16" fill="#3b82f6"/>
  <rect x="24" y="64" width="180" height="36" rx="18" fill="#16181c"/>
  <circle cx="44" cy="82" r="10" fill="#3b82f6"/>
  <rect x="64" y="76" width="50" height="12" rx="2" fill="white"/>
  <rect x="24" y="108" width="180" height="36" rx="18" fill="transparent"/>
  <circle cx="44" cy="126" r="10" fill="#71717a"/>
  <rect x="64" y="120" width="55" height="12" rx="2" fill="#71717a"/>
  <rect x="24" y="152" width="180" height="36" rx="18" fill="transparent"/>
  <circle cx="44" cy="170" r="10" fill="#71717a"/>
  <rect x="64" y="164" width="80" height="12" rx="2" fill="#71717a"/>
  <rect x="24" y="196" width="180" height="36" rx="18" fill="transparent"/>
  <circle cx="44" cy="214" r="10" fill="#71717a"/>
  <rect x="64" y="208" width="65" height="12" rx="2" fill="#71717a"/>
  <rect x="24" y="260" width="180" height="44" rx="22" fill="#3b82f6"/>
  <text x="88" y="288" font-family="system-ui" font-size="14" font-weight="bold" fill="white">Post</text>
  
  <!-- User at bottom -->
  <circle cx="44" cy="460" r="18" fill="#2f3336"/>
  <rect x="72" y="450" width="80" height="10" rx="2" fill="white"/>
  <rect x="72" y="464" width="60" height="8" rx="2" fill="#71717a"/>

  <!-- Main Feed -->
  <rect x="221" y="0" width="378" height="500" fill="#000000"/>
  <rect x="599" width="1" height="500" fill="#2f3336"/>
  
  <!-- Compose Box -->
  <rect x="221" y="0" width="378" height="120" fill="#000000"/>
  <rect x="221" y="120" width="378" height="1" fill="#2f3336"/>
  <circle cx="260" cy="40" r="20" fill="#2f3336"/>
  <rect x="296" y="28" width="260" height="24" rx="4" fill="#16181c"/>
  <rect x="308" y="36" width="140" height="8" rx="2" fill="#71717a"/>
  <rect x="240" y="80" width="24" height="24" rx="4" fill="#16181c"/>
  <rect x="272" y="80" width="24" height="24" rx="4" fill="#16181c"/>
  <rect x="304" y="80" width="24" height="24" rx="4" fill="#16181c"/>
  <rect x="520" y="80" width="60" height="28" rx="14" fill="#3b82f6" opacity="0.5"/>

  <!-- Posts -->
  <rect x="221" y="121" width="378" height="126" fill="#000000"/>
  <rect x="221" y="247" width="378" height="1" fill="#2f3336"/>
  <circle cx="260" cy="152" r="20" fill="#2f3336"/>
  <rect x="296" y="140" width="80" height="10" rx="2" fill="white"/>
  <rect x="384" y="140" width="60" height="10" rx="2" fill="#71717a"/>
  <rect x="296" y="160" width="280" height="8" rx="2" fill="#e5e5e5"/>
  <rect x="296" y="176" width="240" height="8" rx="2" fill="#e5e5e5"/>
  <rect x="296" y="192" width="180" height="8" rx="2" fill="#e5e5e5"/>
  <rect x="296" y="216" width="40" height="20" rx="4" fill="transparent"/>
  <text x="296" y="230" font-family="system-ui" font-size="12" fill="#71717a">💬 24</text>
  <rect x="360" y="216" width="40" height="20" rx="4" fill="transparent"/>
  <text x="360" y="230" font-family="system-ui" font-size="12" fill="#71717a">🔁 12</text>
  <rect x="424" y="216" width="40" height="20" rx="4" fill="transparent"/>
  <text x="424" y="230" font-family="system-ui" font-size="12" fill="#f43f5e">❤️ 847</text>

  <rect x="221" y="248" width="378" height="126" fill="#000000"/>
  <rect x="221" y="374" width="378" height="1" fill="#2f3336"/>
  <circle cx="260" cy="279" r="20" fill="#2f3336"/>
  <rect x="296" y="267" width="90" height="10" rx="2" fill="white"/>
  <rect x="394" y="267" width="50" height="10" rx="2" fill="#71717a"/>
  <rect x="296" y="287" width="260" height="8" rx="2" fill="#e5e5e5"/>
  <rect x="296" y="303" width="200" height="8" rx="2" fill="#e5e5e5"/>
  <rect x="296" y="327" width="280" height="36" rx="8" fill="#2f3336"/>
  <rect x="296" y="371" width="40" height="20" rx="4" fill="transparent"/>

  <!-- Right Sidebar -->
  <rect x="600" y="0" width="200" height="500" fill="#000000"/>
  <rect x="616" y="16" width="168" height="36" rx="18" fill="#16181c"/>
  <rect x="632" y="28" width="80" height="12" rx="2" fill="#71717a"/>
  
  <!-- Trending -->
  <rect x="616" y="68" width="168" height="160" rx="16" fill="#16181c"/>
  <rect x="632" y="84" width="120" height="12" rx="2" fill="white"/>
  <rect x="632" y="108" width="60" height="8" rx="2" fill="#71717a"/>
  <rect x="632" y="122" width="100" height="10" rx="2" fill="white"/>
  <rect x="632" y="138" width="50" height="8" rx="2" fill="#71717a"/>
  <rect x="632" y="156" width="70" height="8" rx="2" fill="#71717a"/>
  <rect x="632" y="170" width="90" height="10" rx="2" fill="white"/>
  <rect x="632" y="186" width="55" height="8" rx="2" fill="#71717a"/>
  <rect x="632" y="204" width="80" height="8" rx="2" fill="#71717a"/>

  <!-- Who to follow -->
  <rect x="616" y="244" width="168" height="140" rx="16" fill="#16181c"/>
  <rect x="632" y="260" width="100" height="12" rx="2" fill="white"/>
  <circle cx="648" cy="296" r="16" fill="#2f3336"/>
  <rect x="672" y="288" width="70" height="8" rx="2" fill="white"/>
  <rect x="672" y="300" width="50" height="6" rx="2" fill="#71717a"/>
  <rect x="720" y="284" width="48" height="24" rx="12" fill="white"/>
  <circle cx="648" cy="344" r="16" fill="#2f3336"/>
  <rect x="672" y="336" width="60" height="8" rx="2" fill="white"/>
  <rect x="672" y="348" width="45" height="6" rx="2" fill="#71717a"/>
  <rect x="720" y="332" width="48" height="24" rx="12" fill="white"/>
</svg>
