<svg width="800" height="500" viewBox="0 0 800 500" fill="none" xmlns="http://www.w3.org/2000/svg">
  <!-- Background -->
  <rect width="800" height="500" fill="#0f0f23"/>
  
  <!-- Top Navbar -->
  <rect width="800" height="56" fill="#1a1a2e"/>
  <rect x="24" y="16" width="80" height="24" rx="4" fill="#8b5cf6"/>
  <rect x="120" y="20" width="120" height="16" rx="4" fill="#252542"/>
  <rect x="128" y="24" width="80" height="8" rx="2" fill="#6b7280"/>
  <rect x="500" y="20" width="180" height="16" rx="8" fill="#252542"/>
  <rect x="516" y="24" width="100" height="8" rx="2" fill="#6b7280"/>
  <circle cx="720" cy="28" r="12" fill="#252542"/>
  <circle cx="760" cy="28" r="14" fill="#8b5cf6"/>

  <!-- Left Sidebar -->
  <rect y="56" width="220" height="444" fill="#1a1a2e"/>
  <rect x="16" y="72" width="100" height="14" rx="2" fill="white"/>
  <rect x="16" y="100" width="188" height="36" rx="6" fill="#8b5cf6" opacity="0.2"/>
  <circle cx="32" cy="118" r="6" fill="#8b5cf6"/>
  <rect x="48" y="112" width="100" height="10" rx="2" fill="white"/>
  <rect x="16" y="144" width="188" height="36" rx="6" fill="transparent"/>
  <circle cx="32" cy="162" r="6" fill="#22c55e"/>
  <rect x="48" y="156" width="80" height="10" rx="2" fill="#9ca3af"/>
  <rect x="16" y="188" width="188" height="36" rx="6" fill="transparent"/>
  <circle cx="32" cy="206" r="6" fill="#f59e0b"/>
  <rect x="48" y="200" width="90" height="10" rx="2" fill="#9ca3af"/>
  <rect x="16" y="232" width="188" height="36" rx="6" fill="transparent"/>
  <circle cx="32" cy="250" r="6" fill="#ef4444"/>
  <rect x="48" y="244" width="70" height="10" rx="2" fill="#9ca3af"/>
  
  <!-- Add Project button -->
  <rect x="16" y="284" width="188" height="32" rx="6" fill="#252542"/>
  <text x="80" y="304" font-family="system-ui" font-size="11" fill="#9ca3af">+ Add Project</text>

  <!-- Team Members -->
  <rect x="16" y="340" width="80" height="10" rx="2" fill="#6b7280"/>
  <circle cx="32" cy="372" r="14" fill="#8b5cf6"/>
  <circle cx="60" cy="372" r="14" fill="#22c55e"/>
  <circle cx="88" cy="372" r="14" fill="#f59e0b"/>
  <circle cx="116" cy="372" r="14" fill="#3b82f6"/>
  <circle cx="144" cy="372" r="14" fill="#252542"/>
  <text x="140" y="377" font-family="system-ui" font-size="10" fill="#9ca3af">+2</text>

  <!-- Kanban Board -->
  <!-- Column 1: To Do -->
  <rect x="236" y="72" width="175" height="412" rx="8" fill="#1a1a2e"/>
  <rect x="252" y="88" width="60" height="12" rx="2" fill="white"/>
  <circle cx="332" cy="94" r="10" fill="#252542"/>
  <text x="328" y="98" font-family="system-ui" font-size="10" fill="#9ca3af">4</text>
  <rect x="380" y="86" width="16" height="16" rx="4" fill="#252542"/>
  <text x="384" y="98" font-family="system-ui" font-size="12" fill="#9ca3af">+</text>
  
  <!-- Task Cards in To Do -->
  <rect x="252" y="116" width="143" height="90" rx="6" fill="#252542"/>
  <rect x="264" y="128" width="100" height="10" rx="2" fill="white"/>
  <rect x="264" y="144" width="115" height="6" rx="2" fill="#6b7280"/>
  <rect x="264" y="156" width="80" height="6" rx="2" fill="#6b7280"/>
  <rect x="264" y="176" width="36" height="16" rx="4" fill="#ef4444" opacity="0.3"/>
  <rect x="308" y="176" width="36" height="16" rx="4" fill="#3b82f6" opacity="0.3"/>
  <circle cx="368" cy="184" r="10" fill="#8b5cf6"/>

  <rect x="252" y="216" width="143" height="70" rx="6" fill="#252542"/>
  <rect x="264" y="228" width="90" height="10" rx="2" fill="white"/>
  <rect x="264" y="244" width="100" height="6" rx="2" fill="#6b7280"/>
  <rect x="264" y="264" width="40" height="16" rx="4" fill="#22c55e" opacity="0.3"/>

  <!-- Column 2: In Progress -->
  <rect x="421" y="72" width="175" height="412" rx="8" fill="#1a1a2e"/>
  <rect x="437" y="88" width="80" height="12" rx="2" fill="white"/>
  <circle cx="537" cy="94" r="10" fill="#8b5cf6"/>
  <text x="533" y="98" font-family="system-ui" font-size="10" fill="white">2</text>
  <rect x="565" y="86" width="16" height="16" rx="4" fill="#252542"/>
  
  <rect x="437" y="116" width="143" height="100" rx="6" fill="#252542"/>
  <rect x="449" y="128" width="110" height="10" rx="2" fill="white"/>
  <rect x="449" y="144" width="115" height="6" rx="2" fill="#6b7280"/>
  <rect x="449" y="156" width="90" height="6" rx="2" fill="#6b7280"/>
  <rect x="449" y="176" width="115" height="24" rx="4" fill="#1a1a2e"/>
  <rect x="449" y="208" width="44" height="16" rx="4" fill="#f59e0b" opacity="0.3"/>
  <circle cx="553" cy="216" r="10" fill="#22c55e"/>
  <circle cx="537" cy="216" r="10" fill="#3b82f6"/>

  <!-- Column 3: Review -->
  <rect x="606" y="72" width="175" height="412" rx="8" fill="#1a1a2e"/>
  <rect x="622" y="88" width="55" height="12" rx="2" fill="white"/>
  <circle cx="697" cy="94" r="10" fill="#252542"/>
  <text x="693" y="98" font-family="system-ui" font-size="10" fill="#9ca3af">3</text>
  <rect x="750" y="86" width="16" height="16" rx="4" fill="#252542"/>
  
  <rect x="622" y="116" width="143" height="80" rx="6" fill="#252542"/>
  <rect x="634" y="128" width="80" height="10" rx="2" fill="white"/>
  <rect x="634" y="144" width="100" height="6" rx="2" fill="#6b7280"/>
  <rect x="634" y="168" width="50" height="16" rx="4" fill="#8b5cf6" opacity="0.3"/>
  <circle cx="738" cy="176" r="10" fill="#f59e0b"/>

  <rect x="622" y="206" width="143" height="70" rx="6" fill="#252542"/>
  <rect x="634" y="218" width="100" height="10" rx="2" fill="white"/>
  <rect x="634" y="234" width="80" height="6" rx="2" fill="#6b7280"/>
  <rect x="634" y="254" width="36" height="16" rx="4" fill="#22c55e" opacity="0.3"/>
</svg>
